<svg width="56" height="56" viewBox="0 0 56 56" fill="none" xmlns="http://www.w3.org/2000/svg">
<path d="M27.5839 16.0927H31.4149M27.5839 23.7548H31.4149M12.2597 31.4169H31.4149M12.2597 39.0789H31.4149M39.077 16.0927H47.6968C49.2828 16.0927 50.5701 17.38 50.5701 18.966V42.91C50.5701 44.434 49.9646 45.8957 48.8869 46.9734C47.8093 48.0511 46.3476 48.6565 44.8235 48.6565M39.077 16.0927V42.91C39.077 44.434 39.6824 45.8957 40.7601 46.9734C41.8378 48.0511 43.2994 48.6565 44.8235 48.6565M39.077 16.0927V9.38841C39.077 7.80236 37.7897 6.51514 36.2037 6.51514H7.47093C5.88488 6.51514 4.59766 7.80236 4.59766 9.38841V42.91C4.59766 44.434 5.20309 45.8957 6.28078 46.9734C7.35847 48.0511 8.82013 48.6565 10.3442 48.6565H44.8235M12.2597 16.0927H19.9218V23.7548H12.2597V16.0927Z" stroke="white" stroke-width="2.75862" stroke-linecap="round" stroke-linejoin="round"/>
</svg>
