<svg width="400" height="400" viewBox="0 0 400 400" fill="none" xmlns="http://www.w3.org/2000/svg">
<path d="M47.8472 372.945C47.822 371.735 47.822 370.524 47.822 369.313C47.822 366.766 47.822 364.219 47.822 361.696C47.822 361.293 47.8472 360.915 47.8725 360.461C49.463 360.309 51.003 360.41 52.5178 360.385C54.0073 360.36 55.4969 360.385 56.9864 360.385C58.5264 360.385 60.0665 360.385 61.5813 360.385C63.0708 360.385 64.5603 360.385 66.0499 360.385C67.5899 360.385 69.1299 360.385 70.6447 360.385C72.1342 360.385 73.6238 360.385 75.1133 360.385C76.6533 360.385 78.1934 360.385 79.7082 360.385C81.1977 360.385 82.6872 360.385 84.1768 360.385C85.7168 360.385 87.2568 360.385 88.7716 360.385C90.2611 360.385 91.7507 360.385 93.2402 360.385C94.7802 360.385 96.3203 360.385 97.835 360.385C99.3246 360.385 100.814 360.41 102.253 360.36C102.556 359.931 102.455 359.502 102.455 359.124C102.455 355.694 102.455 352.263 102.455 348.833C102.455 345.277 102.455 341.721 102.455 338.189C102.455 337.761 102.48 337.307 102.48 336.802C102.859 336.777 103.162 336.701 103.49 336.701C105.384 336.701 107.277 336.701 109.171 336.701C109.701 336.701 110.206 336.676 110.736 336.5C109.953 336.399 109.196 336.273 108.413 336.172C104.475 335.667 100.587 334.986 96.7495 334.028C79.9101 329.866 66.1004 320.912 55.1687 307.469C49.8922 300.987 45.5751 293.899 41.9143 286.434C41.1822 284.92 40.4753 283.382 39.7431 281.843C37.9759 278.01 36.865 273.974 35.9309 269.888C34.8958 265.348 34.3152 260.758 34.088 256.117C33.785 250.19 34.3152 244.338 35.4513 238.562C36.6126 232.559 38.5061 226.784 41.0812 221.235C46.3072 209.935 53.7549 200.3 63.197 192.179C71.5788 184.965 81.0715 179.618 91.372 175.684C98.1128 173.111 105.03 171.27 112.124 170.084C112.326 170.059 112.503 170.009 112.756 169.933C112.806 169.681 112.831 169.454 112.857 169.227C112.882 169.025 112.857 168.823 112.857 168.621C112.756 141.558 112.629 114.47 112.528 87.4064C112.528 86.8515 112.655 86.2714 112.377 85.7669C111.973 85.5904 111.569 85.6408 111.165 85.6408C108.085 85.6408 105.03 85.6408 101.95 85.6408C101.521 85.6408 101.067 85.6913 100.663 85.5399C100.486 84.5311 100.486 76.2834 100.637 75.098C100.991 74.8206 101.395 74.9467 101.799 74.9467C105.081 74.9467 108.338 74.9467 111.62 74.9467C112.024 74.9467 112.402 74.9214 112.857 74.8962C112.882 74.5683 112.932 74.2909 112.932 74.0135C112.932 73.3829 113.033 72.7271 112.907 72.0966C112.478 71.8191 112.024 71.92 111.594 71.92C108.413 71.92 105.207 71.92 102.026 71.92C101.597 71.92 101.142 71.8948 100.688 71.8696C100.637 71.5669 100.587 71.3147 100.562 71.0877C100.562 66.3712 100.562 61.6546 100.562 56.9381C100.562 56.7363 100.587 56.5346 100.612 56.358C100.966 56.0049 101.395 56.131 101.773 56.131C105.333 56.131 108.868 56.131 112.427 56.131C112.857 56.131 113.311 56.1058 113.74 56.0806C113.967 55.6518 113.892 55.223 113.892 54.8447C113.892 51.5406 113.892 48.2365 113.892 44.9072C113.892 39.4592 113.892 34.0113 113.892 28.5633C113.892 28.1345 113.892 27.6805 113.892 27.2013C114.169 27.1508 114.397 27.05 114.624 27.05C117.78 27.0247 120.91 27.0247 124.066 26.9995C124.268 26.9995 124.445 27.0247 124.722 27.05C124.748 27.3274 124.798 27.5544 124.798 27.7814C124.798 28.7146 124.798 29.6478 124.798 30.5558C124.773 38.5512 124.773 46.5214 124.773 54.5168C124.773 54.996 124.798 55.4752 124.798 55.8536C124.899 55.9797 124.924 56.0049 124.975 56.0301C125.126 56.0553 125.177 56.0553 125.202 56.0553C129.847 56.0806 134.493 56.0806 139.138 56.1058C139.29 56.1058 139.466 56.0806 139.694 56.0301C139.719 55.7274 139.795 55.3996 139.795 55.0969C139.795 53.1548 139.795 51.2127 139.795 49.2958C139.795 42.5111 139.795 35.7516 139.795 28.9668C139.795 28.4876 139.82 28.0084 139.82 27.4787C140.123 27.4283 140.35 27.3526 140.577 27.3526C143.682 27.3526 146.788 27.3526 149.893 27.3526C150.171 27.3526 150.423 27.4283 150.777 27.4787C150.777 32.2962 150.777 37.0379 150.777 41.8049C150.777 46.5214 150.777 51.2379 150.777 56.0049C151.282 56.0301 151.66 56.0806 152.064 56.0806C154.942 56.0806 157.795 56.0806 160.673 56.0806C161.102 56.0806 161.557 56.0806 161.936 56.0806C162.34 56.4841 162.213 56.9129 162.213 57.2912C162.213 60.5196 162.213 63.7481 162.188 66.9765C162.188 68.3133 162.188 69.65 162.163 70.9616C162.163 71.2642 162.112 71.5921 162.087 71.9452C160.825 72.0966 159.613 71.9957 158.426 72.0209C157.164 72.0461 155.927 72.0209 154.665 72.0209C153.453 72.0209 152.241 72.0209 150.979 72.0209C150.676 72.9541 150.802 73.8621 150.852 74.8458C151.307 74.871 151.686 74.8962 152.09 74.8962C155.043 74.8962 157.972 74.871 160.926 74.871C161.355 74.871 161.809 74.7701 162.289 75.0223C162.314 75.1989 162.365 75.3754 162.365 75.5772C162.365 78.8813 162.39 82.1854 162.34 85.4895C161.885 85.7922 161.431 85.7165 161.001 85.7165C158.174 85.7165 155.346 85.7165 152.519 85.6913C152.09 85.6913 151.635 85.7165 151.282 85.7165C150.953 85.9939 151.029 86.2966 151.029 86.574C151.054 88.2387 151.08 89.8781 151.105 91.5428C151.256 99.1346 151.408 106.701 151.559 114.293C151.761 124.306 151.989 134.294 152.19 144.307C152.317 150.588 152.418 156.893 152.544 163.199C152.594 165.57 152.645 167.966 152.721 170.337C152.721 170.614 152.771 170.891 152.796 171.219C153.983 171.446 155.119 171.724 156.255 171.9C158.123 172.203 159.992 172.531 161.885 172.707C165.091 173.035 168.247 172.506 171.327 171.673C173.322 171.144 175.291 170.564 177.26 169.983C178.75 169.555 180.239 169.302 181.779 169.202C183.319 169.101 184.859 169.202 186.349 169.504C188.873 170.009 191.398 170.589 193.898 171.169C196.17 171.699 198.467 172.102 200.815 172.228C202.456 172.304 204.047 172.127 205.587 171.623C206.697 171.27 207.834 170.942 208.919 170.513C211.848 169.353 214.827 169.378 217.856 169.958C219.194 170.21 220.532 170.589 221.87 170.891C222.931 171.144 224.016 171.194 225.127 171.093C226.465 170.967 227.778 170.765 229.066 170.412C229.646 170.236 230.252 170.135 230.833 170.009C231.792 169.782 232.752 169.857 233.711 170.11C234.797 170.387 235.907 170.639 237.018 170.765C238.508 170.942 239.997 170.791 241.462 170.437C243.153 170.034 244.845 169.63 246.561 169.454C246.789 169.429 247.041 169.429 247.344 169.403C247.369 169.681 247.42 169.933 247.369 170.135C247.092 171.951 246.233 173.388 244.744 174.448C243.885 175.053 242.926 175.507 241.941 175.86C240.755 176.264 239.568 176.642 238.382 177.046C237.725 177.273 237.094 177.5 236.438 177.752C234.898 178.357 233.61 179.265 232.625 180.627C231.414 182.292 229.621 183.048 227.677 183.351C226.491 183.528 225.254 183.528 224.067 183.654C222.83 183.78 221.568 183.856 220.356 184.108C217.149 184.764 214.221 186.1 211.721 188.244C211.04 188.824 210.358 189.404 209.727 190.01C207.531 192.078 204.905 193.036 201.926 193.087C200.26 193.112 198.619 193.213 196.978 193.289C192.963 193.465 189.05 194.247 185.314 195.76C182.562 196.845 179.76 197.728 176.856 198.283C173.145 199.014 169.409 199.115 165.647 198.737C163.728 198.535 161.809 198.232 159.891 197.929C159.386 197.854 158.881 197.702 158.376 197.551C157.114 197.148 155.851 196.744 154.564 196.34C154.185 196.214 153.806 196.139 153.453 196.038C153.125 196.24 153.2 196.492 153.2 196.719C153.226 198.131 153.226 199.544 153.251 200.956C153.352 205.748 153.453 210.566 153.554 215.358C153.554 215.661 153.529 215.988 153.503 216.392C153.15 216.316 152.897 216.266 152.645 216.19C149.641 215.156 146.636 214.072 143.607 213.088C141.082 212.256 138.482 211.625 135.856 211.196C132.246 210.591 128.711 210.768 125.177 211.625C121.945 212.407 118.84 213.517 115.684 214.551C114.876 214.803 114.119 215.156 113.235 215.282C113.008 214.248 113.134 213.239 113.109 212.23C113.084 211.222 113.084 210.213 113.084 209.204C113.084 208.195 113.059 207.186 113.059 206.177C113.059 205.219 113.059 204.235 113.033 203.277C113.033 202.268 113.033 201.259 113.033 200.25C113.033 199.241 113.033 198.232 113.033 197.223C113.033 196.214 113.033 195.206 113.008 194.298C112.73 193.995 112.478 194.096 112.251 194.146C94.6793 198.081 80.2383 206.934 69.5591 221.588C64.3079 228.801 60.8239 236.822 59.0566 245.549C57.9458 250.971 57.6933 256.419 58.0468 261.918C58.3497 266.786 59.5615 271.452 61.1016 276.067C63.5252 283.231 66.7315 289.965 71.1244 296.119C79.1275 307.368 89.731 315.136 102.708 319.702C108.009 321.568 113.488 322.779 119.067 323.409C122.854 323.838 126.641 323.964 130.428 323.788C132.372 323.712 134.291 323.51 136.184 323.107C136.992 322.93 137.724 322.678 138.456 322.274C140.123 321.341 141.764 320.408 143.228 319.197C144.162 318.441 145.071 317.633 145.904 316.751C148.681 313.8 149.489 310.319 148.429 306.435C148.05 305.048 147.52 303.686 146.964 302.349C146.283 300.76 145.5 299.196 144.768 297.632C143.859 295.69 143.001 293.748 142.37 291.705C141.688 289.486 141.36 287.216 141.511 284.895C141.612 283.609 141.89 282.348 142.319 281.112C142.37 280.961 142.471 280.834 142.597 280.683C142.799 280.809 142.976 280.885 143.152 281.011C145.096 282.398 147.293 283.205 149.615 283.584C151.155 283.836 152.746 283.962 154.311 284.113C156.331 284.29 158.325 284.416 160.345 284.542C160.623 284.567 160.9 284.567 161.254 284.592C163.93 281.364 166.48 278.01 169.181 274.68C168.954 274.403 168.777 274.201 168.601 273.999C167.591 272.94 166.581 271.906 165.571 270.872C165.243 270.519 164.864 270.191 164.485 269.888C161.658 267.668 158.982 265.272 156.381 262.775C155.548 261.968 154.69 261.161 153.806 260.379C153.327 259.951 152.796 259.572 152.266 259.194C151.509 258.664 150.65 258.513 149.716 258.664C147.949 258.992 146.283 259.522 144.743 260.48C143.884 261.01 143.051 261.59 142.218 262.145C139.542 264.011 136.689 265.6 133.735 267.038C132.296 267.744 130.782 268.097 129.216 268.299C126.035 268.652 122.854 268.829 119.673 268.753C119.471 268.753 119.269 268.753 119.042 268.753C118.714 269.308 118.209 269.384 117.603 269.308C114.498 269.005 111.468 268.249 108.565 267.164C106.671 266.458 104.828 265.651 102.985 264.818C102.354 264.541 101.723 264.364 101.016 264.339C99.4003 264.238 97.7846 264.137 96.194 263.936C95.4114 263.835 94.654 263.507 93.8714 263.255C92.811 262.927 92.0789 262.17 91.6244 261.186C91.2457 260.354 90.867 259.497 90.4884 258.589C90.1097 258.387 89.6552 258.462 89.226 258.462C85.4391 258.412 81.6269 258.362 77.8399 258.311C76.7038 258.286 75.5677 258.286 74.4569 258.286C74.2297 258.286 73.8762 258.261 73.7753 258.412C73.4218 258.916 72.9169 258.79 72.4624 258.816C71.8313 258.841 71.1749 258.816 70.5185 258.816C70.1903 258.059 70.3417 257.277 70.2913 256.52C70.2408 255.764 70.2913 255.007 70.2913 254.2C70.6699 253.922 71.1244 254.074 71.5536 254.049C71.9575 254.023 72.3615 254.023 72.7654 254.049C72.9169 254.049 73.1441 254.049 73.2198 254.149C73.6238 254.679 74.1539 254.503 74.6589 254.477C77.8399 254.276 81.021 254.074 84.202 253.847C86.045 253.721 87.9132 253.62 89.7562 253.494C90.8418 253.418 91.9274 253.342 93.013 253.241C93.1392 253.241 93.2655 253.216 93.3664 253.166C94.0228 252.787 94.7297 252.661 95.4619 252.813C96.3455 252.485 97.2291 252.384 98.1633 252.384C98.2642 252.384 98.3905 252.283 98.4915 252.233C99.0974 251.93 99.7033 251.955 100.208 252.359C100.738 252.787 101.294 252.813 101.95 252.636C102.001 252.308 102.076 252.006 102.152 251.678C102.859 251.451 103.566 251.577 104.273 251.577C104.374 251.829 104.45 252.031 104.551 252.233C104.677 252.258 104.828 252.308 105.005 252.308C107.075 252.283 109.12 252.233 111.19 252.182C116.593 252.056 121.996 251.905 127.424 251.779C129.444 251.728 131.463 251.652 133.483 251.602C133.988 251.602 134.417 251.451 134.821 251.123C135.376 250.669 136.008 250.29 136.487 249.786C136.033 248.928 135.604 248.096 135.149 247.264C134.013 247.188 132.852 247.188 131.69 247.34C131.009 247.415 130.327 247.541 129.645 247.567C129.09 247.592 128.509 247.567 127.954 247.466C126.919 247.289 126.338 246.608 126.136 245.599C126.06 245.297 126.111 244.943 126.06 244.641C126.035 244.414 125.934 244.187 125.833 243.985C125.707 243.708 125.53 243.43 125.404 243.127C125.354 243.027 125.328 242.85 125.253 242.8C124.47 242.396 124.546 241.715 124.571 241.009C124.571 240.857 124.52 240.706 124.52 240.58C124.192 240.252 123.814 240.303 123.46 240.252C122.501 240.05 122.223 239.647 122.476 238.714C122.627 238.159 122.829 237.654 123.006 237.099C123.081 236.872 123.107 236.645 123.157 236.393C122.576 236.217 122.021 236.065 121.516 235.863C120.506 235.46 120.229 234.577 120.91 233.745C121.289 233.291 121.365 232.837 121.415 232.307C121.491 231.273 121.592 230.239 121.693 229.129C121.365 228.978 121.036 229.003 120.708 229.23C120.708 229.533 120.708 229.835 120.708 230.189C120.178 230.113 119.724 230.012 119.244 229.962C117.426 229.684 115.608 229.962 113.816 230.088C112.528 230.189 111.241 230.416 109.953 230.516C108.969 230.592 108.161 230.945 107.454 231.576C106.798 232.181 106.116 232.761 105.485 233.366C104.753 234.047 103.945 234.527 102.985 234.779C101.672 235.157 100.334 235.51 99.1226 236.166C98.7692 236.343 98.4157 236.317 98.0623 236.217C97.5068 236.065 97.2796 235.788 97.2291 235.182C97.2039 234.955 97.2291 234.728 97.2291 234.426C96.8757 234.451 96.598 234.476 96.3203 234.476C95.3104 234.527 94.3006 234.602 93.2907 234.577C92.71 234.552 92.1041 234.401 91.5235 234.224C90.8671 234.047 90.5136 233.568 90.5388 232.862C90.5641 232.257 90.5893 231.651 90.3369 231.071C90.3116 230.996 90.2864 230.92 90.3116 230.844C90.5388 229.785 90.5893 228.675 91.2457 227.767C91.473 227.439 91.6749 227.111 91.8012 226.708C92.0789 225.749 92.71 225.094 93.6946 224.841C94.4268 224.64 95.1842 224.488 95.9416 224.362C96.9009 224.186 97.8603 224.034 98.8197 223.933C99.5013 223.858 100.183 223.732 100.814 223.505C101.269 223.353 101.748 223.227 102.203 223.076C103.339 222.723 104.5 222.546 105.661 222.672C106.293 222.748 106.722 222.521 107.176 222.143C110.206 219.62 113.614 217.704 117.3 216.266C117.628 216.14 117.982 216.014 118.31 215.888C118.487 216.064 118.613 216.215 118.764 216.392C119.623 216.089 120.506 215.787 121.39 215.509C123.612 214.778 125.833 214.046 128.131 213.618C128.812 213.491 129.494 213.391 130.15 213.264C131.16 213.088 132.17 213.34 133.155 213.517C141.537 215.08 149.742 217.376 157.644 220.604C159.108 221.209 160.497 221.916 161.91 222.622C163.349 223.353 164.662 224.312 165.849 225.422C168.373 227.742 170.646 230.315 172.817 232.988C175.846 236.771 178.649 240.706 181.401 244.691C182.436 246.179 183.446 247.693 184.481 249.181C184.708 249.509 184.935 249.836 185.213 250.19C186.374 250.29 187.535 250.215 188.646 250.139C188.848 249.862 188.646 249.71 188.52 249.584C187.889 248.777 187.232 248.021 186.677 247.188C185.768 245.902 185.087 244.489 184.657 242.951C184.178 241.261 184.051 239.546 184.506 237.806C184.809 236.645 185.415 235.662 186.197 234.678C185.995 234.35 185.793 234.022 185.591 233.694C186.096 232.963 186.702 232.383 187.409 231.904C188.141 231.424 188.924 231.172 189.808 231.172C190.666 231.172 191.499 231.096 192.357 231.096C193.064 231.096 193.342 230.718 193.519 230.062C192.761 229.735 192.029 229.709 191.247 229.785C190.716 229.835 190.212 229.936 189.681 229.936C188.596 229.962 188.167 229.558 188.04 228.448C188.015 228.297 188.015 228.12 188.015 227.969C188.04 227.666 187.99 227.439 187.788 227.187C187.434 226.758 187.384 226.153 186.879 225.8C186.753 225.724 186.728 225.447 186.728 225.245C186.702 224.917 186.728 224.614 186.728 224.236C186.349 224.16 186.046 224.11 185.743 224.06C184.986 223.883 184.733 223.505 184.96 222.723C185.162 222.067 185.44 221.436 185.617 220.781C185.743 220.327 186.021 219.898 185.92 219.318C185.591 219.217 185.238 219.116 184.885 219.015C184.531 218.914 184.178 218.839 183.849 218.687C182.966 218.309 182.638 217.35 183.269 216.619C183.673 216.14 183.774 215.661 183.774 215.08C183.799 214.475 183.875 213.87 183.925 213.264C184.001 212.356 184.279 211.524 184.784 210.768C185.112 210.288 185.188 209.834 185.036 209.305C184.885 208.75 184.859 208.195 184.733 207.64C184.607 207.11 184.758 206.682 185.137 206.328C185.667 205.824 186.147 205.269 186.702 204.815C190.287 202.091 194.276 201.309 198.593 202.57C201.623 203.453 203.769 205.42 205.082 208.321C206.092 210.566 207.556 212.483 209.424 214.072C209.777 214.374 210.232 214.626 210.661 214.803C211.696 215.257 211.721 215.257 212.226 216.392C213.135 216.77 214.145 216.922 215.13 216.997C216.367 217.098 217.629 217.098 218.891 217.174C219.346 217.199 219.775 217.098 220.179 216.922C220.76 216.669 221.366 216.392 221.971 216.165C222.805 215.837 223.613 215.509 224.471 215.232C226.112 214.677 227.753 214.5 229.47 214.803C232.777 215.383 235.731 216.644 238.23 218.889C239.19 219.747 240.023 220.73 240.755 221.815C240.957 222.092 240.831 222.344 240.755 222.647C240.932 222.798 241.133 223 241.335 223.177C244.617 225.876 248.152 228.196 251.838 230.289C252.191 230.491 252.57 230.643 252.949 230.769C256.256 231.777 259.336 233.266 262.265 235.082C264.562 236.519 266.733 238.108 268.904 239.748C269.283 240.025 269.611 240.403 270.192 240.277C270.344 240.252 270.546 240.429 270.697 240.53C273.929 243.254 277.236 245.952 279.912 249.256C280.215 249.635 280.594 249.786 281.023 249.937C282.664 250.492 284.204 251.299 285.668 252.258C285.946 252.434 286.198 252.636 286.451 252.813C287.511 253.544 288.167 254.528 288.218 255.839C288.268 256.924 288.799 257.655 289.607 258.362C293.318 261.615 296.625 265.247 299.554 269.232C315.181 290.444 330.809 311.656 346.436 332.868C352.924 341.67 359.438 350.473 365.926 359.25C366.255 359.704 366.608 360.107 366.936 360.536C366.936 360.612 366.936 360.687 366.936 360.788C366.557 360.99 366.684 361.343 366.684 361.646C366.684 365.303 366.684 368.986 366.684 372.643C260.371 372.945 154.109 372.945 47.8472 372.945ZM357.166 360.36C356.787 359.83 356.56 359.452 356.307 359.098C350.072 350.473 343.81 341.847 337.549 333.221C322.831 312.892 308.137 292.563 293.444 272.234C293.166 271.83 292.889 271.452 292.535 271.099C290.919 269.409 289.278 267.744 287.637 266.08C287.461 265.878 287.233 265.726 286.981 265.525C286.855 265.701 286.754 265.827 286.678 265.953C286.299 266.584 285.693 266.786 285.012 266.71C284.658 266.66 284.305 266.559 283.977 266.382C283.648 266.206 283.32 266.13 282.941 266.206C282.336 266.307 281.73 266.281 281.174 265.953C280.77 265.701 280.366 265.676 279.912 265.701C279.155 265.777 278.473 265.55 277.842 265.146C277.614 264.995 277.362 264.869 277.084 264.768C275.57 264.188 275.09 263.532 275.09 261.867C275.09 260.859 274.938 259.875 274.661 258.891C274.484 258.286 274.156 258.059 273.55 257.983C269.662 257.403 265.875 256.495 262.113 255.411C261.735 255.31 261.305 255.259 260.977 255.057C260.497 254.755 259.993 254.73 259.462 254.78C256.761 254.957 254.085 255.209 251.358 255.259C251.207 255.259 251.03 255.259 251.03 255.562C251.384 255.764 251.737 256.016 252.116 256.218C255.069 257.933 258.023 259.673 261.028 261.363C261.861 261.842 262.517 262.448 263.047 263.229C264.007 264.617 263.906 265.348 262.643 266.458C262.492 266.584 262.315 266.66 262.138 266.761C261.028 266.231 260.068 265.474 258.882 264.919C258.856 265.172 258.806 265.323 258.831 265.449C259.134 267.189 259.462 268.93 259.791 270.695C259.841 271.048 260.068 271.275 260.321 271.452C262.593 273.116 264.461 275.185 266.102 277.429C267.541 279.422 268.93 281.465 270.318 283.483C271.707 285.501 273.07 287.569 274.484 289.586C275.822 291.478 277.286 293.244 278.927 294.858C279.483 295.388 280.089 295.842 280.745 296.22C283.825 297.935 286.678 299.978 289.304 302.324C294.1 306.611 297.534 311.908 300.311 317.659C300.336 317.734 300.336 317.81 300.336 317.886C300.235 318.087 300.109 318.289 300.008 318.491C300.462 319.298 300.917 320.08 301.321 320.862C302.204 322.501 303.113 324.115 303.946 325.755C304.855 327.571 305.587 329.437 305.865 331.455C305.89 331.606 305.89 331.808 305.991 331.909C306.395 332.439 306.294 333.069 306.294 333.649C306.269 334.381 306.244 335.112 306.219 335.819C306.219 336.046 306.244 336.273 306.269 336.575C307.658 336.676 308.996 336.6 310.309 336.626C311.672 336.626 313.06 336.6 314.424 336.626C315.737 336.651 317.075 336.55 318.387 336.701C318.615 337.206 318.539 337.71 318.539 338.164C318.539 344.949 318.539 351.708 318.539 358.493C318.539 358.846 318.514 359.225 318.539 359.578C318.564 359.805 318.64 360.032 318.69 360.259C331.516 360.36 344.214 360.36 357.166 360.36ZM187.207 288.628C186.677 289.057 186.298 289.561 185.869 290.04C185.415 290.494 184.986 290.974 184.506 291.428C184.051 291.882 183.572 292.31 183.092 292.739C182.612 293.168 182.107 293.572 181.603 293.975C181.098 294.379 180.593 294.757 180.062 295.135C179.532 295.514 179.002 295.867 178.472 296.245C177.967 296.598 177.361 296.85 176.831 297.405C177.008 297.506 177.109 297.582 177.21 297.632C179.835 299.171 182.284 300.962 184.632 302.853C190.767 307.847 196.877 312.866 202.986 317.886C203.138 318.012 203.213 318.163 203.34 318.314C202.986 318.743 202.683 319.096 202.38 319.5C202.608 319.878 202.809 320.231 203.037 320.559C204.198 322.4 205.258 324.317 206.142 326.285C206.925 328.025 207.581 329.79 207.935 331.657C207.985 331.884 208.01 332.136 208.136 332.338C208.364 332.716 208.364 333.095 208.338 333.498C208.288 334.305 208.263 335.112 208.237 335.919C208.237 336.146 208.313 336.373 208.364 336.651C212.125 336.651 215.837 336.651 219.548 336.651C219.699 336.651 219.851 336.6 220.053 336.55C220.103 335.919 220.154 335.339 220.179 334.734C220.381 334.583 220.558 334.431 220.76 334.28C220.684 334.003 220.608 333.725 220.558 333.448C220.179 331.707 220.81 330.371 222.199 329.336C222.981 328.756 223.89 328.403 224.824 328.151C226.137 327.773 227.5 327.52 228.864 327.394C229.899 327.293 230.959 327.193 231.994 327.117C232.676 327.066 233.156 326.713 233.307 326.058C233.534 325.2 233.534 324.317 233.332 323.409C232.827 323.485 232.398 323.561 231.893 323.661C231.717 323.434 231.54 323.208 231.338 323.006C229.924 321.669 228.586 320.282 227.096 319.046C225.178 317.457 223.158 315.969 221.164 314.455C218.487 312.463 215.736 310.546 213.06 308.528C209.803 306.056 206.798 303.307 204.148 300.18C203.819 299.801 203.466 299.524 203.011 299.297C197.558 296.699 192.61 293.294 188.066 289.309C187.838 289.132 187.561 288.905 187.207 288.628ZM219.22 284.012C219.194 283.785 219.144 283.634 219.144 283.483C218.967 280.708 218.841 277.934 218.639 275.159C218.513 273.47 218.286 271.805 218.058 270.115C217.983 269.611 217.856 269.081 217.654 268.602C217.023 267.114 216.367 265.651 215.736 264.163C215.534 263.683 215.231 263.356 214.802 263.103C213.539 262.397 212.201 261.817 210.838 261.338C209.424 260.859 208.01 260.379 206.596 259.9C204.678 259.244 202.835 258.412 201.219 257.201C200.386 256.596 199.477 256.369 198.492 256.369C196.321 256.394 194.125 256.47 191.954 256.52C191.777 256.52 191.55 256.445 191.423 256.672C191.726 257.353 191.726 257.353 191.651 257.933C194.125 258.967 196.523 260.203 198.694 261.817C200.866 263.431 202.784 265.323 204.829 267.265C203.92 267.87 203.087 268.4 202.254 268.955C202.355 270.065 202.431 271.099 202.532 272.133C202.557 272.435 202.734 272.637 203.011 272.763C203.163 272.814 203.314 272.889 203.441 272.965C206.319 274.277 208.793 276.118 210.813 278.514C211.797 279.674 212.731 280.91 213.615 282.146C214.776 283.735 215.862 285.4 216.998 287.014C218.134 288.628 219.396 290.167 220.81 291.529C220.936 291.655 221.088 291.781 221.34 291.957C221.391 290.923 221.088 290.091 220.987 289.233C220.886 288.401 220.709 287.569 220.608 286.736C220.482 285.854 220.381 284.996 220.255 284.113C219.876 284.088 219.598 284.063 219.22 284.012ZM268.602 336.6C268.627 335.617 269.106 334.759 269.182 333.801C269.283 332.187 270.116 331.077 271.631 330.522C272.086 330.345 272.54 330.194 273.02 330.118C274.105 329.942 275.166 329.816 276.251 329.69C276.756 329.639 277.185 329.513 277.539 329.034C277.564 328.655 277.488 328.277 277.337 327.899C276.731 326.285 275.847 324.872 274.711 323.586C274.534 323.384 274.307 323.182 274.055 323.056C272.616 322.375 271.101 322.047 269.46 321.946C269.005 322.703 268.602 323.435 268.147 324.141C267.693 324.847 267.364 325.629 266.809 326.158C265.521 325.679 264.335 325.175 263.098 324.771C261.482 324.242 259.791 324.065 258.099 323.838C257.392 323.737 256.887 323.964 256.382 324.443C254.06 326.638 251.712 328.782 249.364 330.951C249.111 331.178 248.834 331.405 248.531 331.632C248 331.228 247.521 330.875 246.991 330.497C246.688 330.85 246.435 331.152 246.158 331.455C245.097 332.691 243.885 333.75 242.421 334.482C240.78 335.289 239.089 335.919 237.271 336.222C236.816 336.298 236.362 336.424 235.706 336.575C236.968 336.727 266.935 336.752 268.602 336.6ZM126.641 129.124C126.616 129.376 126.591 129.578 126.591 129.779C126.591 138.683 126.616 147.586 126.616 156.515C126.616 156.54 126.641 156.591 126.666 156.616C126.692 156.641 126.717 156.691 126.793 156.792C127.525 156.918 128.333 156.843 129.115 156.843C129.923 156.868 130.731 156.843 131.539 156.843C132.397 156.843 133.23 156.843 134.089 156.843C134.871 156.818 135.679 156.918 136.538 156.742C136.563 156.187 136.563 155.708 136.563 155.254C136.563 147.031 136.563 138.809 136.563 130.587C136.563 130.309 136.563 130.032 136.563 129.729C136.538 129.502 136.487 129.275 136.462 129.073C135.174 128.922 127.676 128.947 126.641 129.124ZM126.161 90.7609C126.136 91.2653 126.136 91.6941 126.136 92.1481C126.136 97.1925 126.136 102.237 126.136 107.256C126.136 109.476 126.136 111.695 126.136 113.915C126.136 114.217 126.187 114.52 126.237 114.848C126.49 114.873 126.641 114.924 126.793 114.924C129.772 114.924 132.776 114.924 135.755 114.924C135.932 114.924 136.134 114.848 136.386 114.823C136.412 114.344 136.437 113.89 136.437 113.461C136.462 110.157 136.487 106.853 136.487 103.548C136.462 99.6895 136.487 95.8558 136.487 92.022C136.487 91.5932 136.613 91.1392 136.361 90.7357C135.326 90.6096 127.323 90.6096 126.161 90.7609ZM173.902 319.576C173.675 319.878 173.524 320.055 173.397 320.256C171.908 322.451 170.141 324.342 168.121 326.058C165.495 328.277 162.567 330.068 159.461 331.556C154.665 333.876 149.565 335.213 144.364 336.172C144.036 336.222 143.733 336.298 143.405 336.348C143.102 336.399 142.824 336.449 142.521 336.525C142.849 336.676 143.178 336.701 143.48 336.701C151.963 336.701 160.421 336.701 168.904 336.701C169.181 336.701 169.434 336.651 169.762 336.6C169.787 336.222 169.838 335.919 169.838 335.592C169.863 335.112 169.711 334.557 169.888 334.154C170.141 333.549 170.065 333.019 169.989 332.414C169.762 330.396 170.747 328.756 172.59 327.974C173.145 327.747 173.726 327.546 174.332 327.445C175.594 327.243 176.881 327.092 178.169 326.966C179.255 326.839 180.34 326.789 181.426 326.663C181.653 326.638 181.88 326.562 182.183 326.461C182.057 326.209 182.006 326.007 181.905 325.881C181.401 325.301 180.946 324.696 180.391 324.166C178.472 322.375 176.25 320.988 173.902 319.576ZM247.925 293.546C247.799 293.672 247.748 293.698 247.748 293.723C247.521 297.052 247.319 300.382 247.117 303.711C247.117 303.761 247.142 303.787 247.142 303.837C247.193 303.913 247.167 303.862 247.142 303.837C247.748 304.316 248.228 304.694 248.758 305.123C248.834 305.123 248.96 305.148 249.086 305.123C252.52 304.518 255.953 304.341 259.437 304.644C260.068 304.695 260.725 304.745 261.356 304.77C261.507 304.77 261.684 304.821 261.76 304.518C261.634 304.341 261.457 304.14 261.28 303.938C260.548 303.08 259.765 302.273 259.058 301.39C258.604 300.836 258.099 300.457 257.468 300.155C254.262 298.666 251.384 296.699 248.783 294.303C248.48 294.026 248.228 293.799 247.925 293.546ZM239.619 239.344C239.593 239.495 239.543 239.571 239.568 239.622C240.023 240.908 240.452 242.219 240.982 243.481C241.537 244.817 241.992 246.205 242.345 247.617C242.396 247.768 242.396 247.945 242.446 248.096C242.699 249.029 243.103 249.206 243.936 248.777C244.264 248.626 244.567 248.424 244.895 248.273C245.855 247.768 246.864 247.365 247.95 247.163C248.127 247.138 248.303 247.163 248.632 247.163C248.202 247.617 247.874 247.945 247.571 248.298C247.445 248.449 247.294 248.601 247.47 248.828C248.884 248.954 250.828 248.853 251.686 248.626C251.434 248.424 251.232 248.273 251.005 248.096C249.919 247.314 248.808 246.583 247.773 245.751C246.385 244.641 245.072 243.481 243.557 242.497C242.926 242.068 242.345 241.538 241.765 241.059C241.234 240.63 240.704 240.176 240.174 239.748C240.023 239.571 239.821 239.47 239.619 239.344ZM282.613 336.5C282.689 336.6 282.714 336.626 282.74 336.626C282.815 336.651 282.891 336.676 282.967 336.676C286.678 336.676 290.364 336.701 294.075 336.701C294.353 336.701 294.631 336.676 294.908 336.676C294.933 336.676 294.984 336.651 295.009 336.626C295.034 336.6 295.06 336.575 295.161 336.5C295.211 335.97 295.287 335.39 295.034 334.759C293.545 334.759 292.106 334.759 290.692 335.037C288.47 335.465 286.249 335.844 284.052 336.247C283.573 336.323 283.118 336.399 282.613 336.5ZM184.758 336.5C184.758 336.525 184.758 336.575 184.758 336.6C185.011 336.626 185.263 336.676 185.516 336.676C189.227 336.676 192.913 336.676 196.624 336.676C196.801 336.676 197.003 336.6 197.205 336.55C197.23 335.995 197.382 335.465 197.003 334.961C195.488 334.961 193.948 334.936 192.458 335.264C191.247 335.516 190.01 335.718 188.772 335.919C187.434 336.146 186.096 336.323 184.758 336.5Z" fill="#0D2660"/>
</svg>
